<?xml version="1.0" encoding="UTF-8"?>
<svg id="Layer_2" data-name="Layer 2" xmlns="http://www.w3.org/2000/svg" viewBox="0 0 401 48">
  <defs>
    <style>
      .cls-1 {
        fill: #f15949;
      }

      .cls-1, .cls-2 {
        stroke-width: 0px;
      }

      .cls-2 {
        fill: #fff;
      }

      .cls-3 {
        opacity: 0;
      }
    </style>
  </defs>
  <g id="Layer_3" data-name="Layer 3">
    <g>
      <g>
        <g>
          <path class="cls-1" d="M59.14,9.55h11.87c3.59,0,6.12,1.21,7.59,3.64,1.47,2.43,2.2,5.89,2.2,10.39,0,4.73-.81,8.25-2.43,10.56-1.62,2.31-4.07,3.47-7.36,3.47h-11.87V9.55ZM70.45,32.57c1.69,0,2.91-.74,3.64-2.22.73-1.48,1.1-3.74,1.1-6.77,0-2.38-.17-4.22-.51-5.52-.34-1.3-.85-2.21-1.54-2.71-.68-.51-1.58-.76-2.69-.76h-5.69v17.98h5.69Z"/>
          <path class="cls-1" d="M91.57,9.55h7.09l8.8,28.07h-5.84l-1.78-5.88h-9.56l-1.74,5.88h-5.77l8.8-28.07ZM98.51,26.69l-3.45-12.33-3.45,12.33h6.9Z"/>
          <path class="cls-1" d="M114.52,14.59h-7.7v-5.05h21.05v5.05h-7.74v23.02h-5.61V14.59Z"/>
          <path class="cls-1" d="M136.03,9.55h7.09l8.8,28.07h-5.84l-1.78-5.88h-9.56l-1.74,5.88h-5.77l8.8-28.07ZM142.97,26.69l-3.45-12.33-3.45,12.33h6.9Z"/>
          <path class="cls-1" d="M164.78,9.55h11.87c3.59,0,6.12,1.21,7.59,3.64,1.47,2.43,2.2,5.89,2.2,10.39,0,4.73-.81,8.25-2.43,10.56-1.62,2.31-4.07,3.47-7.36,3.47h-11.87V9.55ZM176.08,32.57c1.69,0,2.91-.74,3.64-2.22.73-1.48,1.1-3.74,1.1-6.77,0-2.38-.17-4.22-.51-5.52-.34-1.3-.85-2.21-1.54-2.71-.68-.51-1.58-.76-2.69-.76h-5.69v17.98h5.69Z"/>
          <path class="cls-1" d="M192.62,36.59c-1.37-.81-2.05-2.47-2.05-4.97v-15.67c0-2.28.63-3.91,1.88-4.91,1.25-1,2.76-1.5,4.53-1.5,3.87,0,7.91.16,12.14.49v4.7h-10.47c-1.64,0-2.47.77-2.47,2.31v4.06l11.11.3v4.44l-11.11.3v3.87c0,1.67.78,2.5,2.35,2.5h10.58v4.7c-3.36.38-7.27.57-11.72.57-1.82,0-3.41-.4-4.78-1.21Z"/>
          <path class="cls-1" d="M213.22,9.55h11.83c2.35,0,4.29.66,5.8,1.97,1.52,1.31,2.28,3.87,2.28,7.66,0,6.58-2.62,9.86-7.85,9.86-.81,0-1.86-.07-3.15-.21-1.29-.14-2.39-.27-3.3-.4v9.18h-5.61V9.55ZM224.41,24c1.01,0,1.78-.38,2.3-1.14.52-.76.78-1.97.78-3.64,0-3.08-.99-4.63-2.96-4.63h-5.69v9.41h5.58Z"/>
          <path class="cls-1" d="M241.02,36.74c-1.64-.73-2.88-2.12-3.72-4.17-.83-2.05-1.25-5.03-1.25-8.95s.42-6.91,1.27-8.97c.85-2.06,2.09-3.47,3.74-4.23,1.64-.76,3.83-1.14,6.56-1.14s4.95.38,6.58,1.14c1.63.76,2.86,2.17,3.7,4.23.83,2.06,1.25,5.05,1.25,8.97s-.42,6.9-1.25,8.95c-.83,2.05-2.07,3.44-3.7,4.17-1.63.73-3.82,1.1-6.58,1.1s-4.96-.37-6.6-1.1ZM251.24,32.1c.82-.47,1.41-1.35,1.76-2.66.35-1.3.53-3.24.53-5.82s-.18-4.67-.53-5.97c-.35-1.3-.94-2.18-1.76-2.64-.82-.46-2.03-.68-3.62-.68s-2.76.23-3.58.68c-.82.46-1.42,1.34-1.8,2.66-.38,1.32-.57,3.3-.57,5.96s.18,4.55.53,5.84c.35,1.29.94,2.17,1.76,2.64.82.47,2.04.7,3.66.7s2.8-.23,3.62-.7Z"/>
          <path class="cls-1" d="M267.12,37.58c-1.64-.18-3.03-.4-4.17-.68v-4.44c2.25.23,5.1.34,8.53.34,1.54,0,2.71-.21,3.49-.63.78-.42,1.18-1.16,1.18-2.22v-1.02c0-.83-.25-1.47-.74-1.92-.49-.44-1.19-.66-2.11-.66h-2.39c-2.78,0-4.86-.61-6.24-1.82-1.38-1.21-2.07-3.2-2.07-5.95v-1.37c0-5.26,3.02-7.89,9.07-7.89,1.42,0,2.88.09,4.4.28,1.52.19,2.88.41,4.1.66v4.44c-3.46-.23-6.08-.34-7.85-.34-1.44,0-2.53.22-3.26.66-.73.44-1.1,1.26-1.1,2.45v.76c0,.96.27,1.66.82,2.11.54.44,1.37.66,2.48.66h2.77c2.43,0,4.28.66,5.56,1.99,1.28,1.33,1.92,3.07,1.92,5.22v1.59c0,2.12-.39,3.77-1.18,4.95-.78,1.18-1.88,1.99-3.3,2.43-1.42.44-3.17.66-5.27.66-1.44,0-2.98-.09-4.63-.27Z"/>
          <path class="cls-1" d="M285.63,9.55h5.61v28.07h-5.61V9.55Z"/>
          <path class="cls-1" d="M301.97,14.59h-7.7v-5.05h21.05v5.05h-7.74v23.02h-5.61V14.59Z"/>
          <path class="cls-1" d="M328.15,9.55h11.04c5.34,0,8,2.45,8,7.36,0,1.67-.34,3.03-1.02,4.08-.68,1.05-1.64,1.74-2.88,2.07,1.37.33,2.51,1.06,3.43,2.2.92,1.14,1.38,2.68,1.38,4.63,0,2.78-.7,4.77-2.11,5.96-1.4,1.19-3.51,1.78-6.32,1.78h-11.53V9.55ZM339.22,21.12c.81,0,1.45-.3,1.92-.91.47-.61.7-1.42.7-2.43,0-1.11-.25-1.92-.74-2.43-.49-.51-1.14-.76-1.95-.76h-5.39v6.52h5.46ZM339.53,32.57c2.15,0,3.22-1.23,3.22-3.68,0-1.06-.3-1.9-.89-2.52-.59-.62-1.37-.93-2.33-.93h-5.77v7.13h5.77Z"/>
          <path class="cls-1" d="M356.18,36.74c-1.64-.73-2.88-2.12-3.72-4.17-.83-2.05-1.25-5.03-1.25-8.95s.42-6.91,1.27-8.97c.85-2.06,2.09-3.47,3.74-4.23,1.64-.76,3.83-1.14,6.56-1.14s4.95.38,6.58,1.14c1.63.76,2.86,2.17,3.7,4.23.83,2.06,1.25,5.05,1.25,8.97s-.42,6.9-1.25,8.95c-.83,2.05-2.07,3.44-3.7,4.17-1.63.73-3.82,1.1-6.58,1.1s-4.96-.37-6.6-1.1ZM366.4,32.1c.82-.47,1.41-1.35,1.76-2.66.35-1.3.53-3.24.53-5.82s-.18-4.67-.53-5.97c-.35-1.3-.94-2.18-1.76-2.64-.82-.46-2.03-.68-3.62-.68s-2.76.23-3.58.68c-.82.46-1.42,1.34-1.8,2.66-.38,1.32-.57,3.3-.57,5.96s.18,4.55.53,5.84c.35,1.29.94,2.17,1.76,2.64.82.47,2.04.7,3.66.7s2.8-.23,3.62-.7Z"/>
          <path class="cls-1" d="M390.85,23.85l8.61,13.77h-6.22l-5.84-9.33-5.35,9.33h-6.22l8.65-14.07-8.76-14h6.22l5.99,9.6,5.46-9.6h6.18l-8.72,14.3Z"/>
        </g>
        <g>
          <path class="cls-1" d="M30.84,45.92l14.18-11.68c.65-.54,1.07-1.31,1.17-2.15l2.5-21.41c.12-1.04-.95-1.8-1.89-1.35l-16.48,7.91c-.84.4-1.37,1.25-1.37,2.18v25.6c0,.97,1.13,1.51,1.89.89Z"/>
          <path class="cls-1" d="M29.15,14.34l15.36-7.37c.65-.31.53-1.27-.17-1.42L24.82,1.53c-.87-.18-1.78-.14-2.64.12L4.64,6.9c-.4.12-.41.69-.01.82l20.44,6.87c1.34.45,2.81.36,4.08-.25Z"/>
          <path class="cls-1" d="M22.17,16.92L3.17,10.53c-.94-.32-1.88.48-1.73,1.46l3.47,22.12c.13.85.64,1.6,1.38,2.05l17.06,10.26c.77.46,1.75-.09,1.75-.99v-24.44c0-1.84-1.18-3.48-2.93-4.07ZM16.25,37.16c-3.16.8-6.84-3.03-8.23-8.55-1.39-5.52.04-10.63,3.2-11.43s6.84,3.03,8.23,8.55-.04,10.63-3.2,11.43Z"/>
          <path class="cls-1" d="M16.88,33.4l-1.3-3.52c-.03-.09-.04-.18,0-.27.27-.75.29-1.76.02-2.83-.17-.68-.45-1.29-.79-1.78-.03-.04-.04-.1-.03-.15l.63-2.68c.15-.79.13-1.41-.5-1.4-.23,0-.4.22-.47.44l-.81,2.56c-.02.07-.1.11-.17.09-.26-.09-.52-.1-.77-.04-.76.19-1.24,1.06-1.33,2.2,0,.09-.08.15-.17.15l-1.39-.06c-.4-.02-.62.42-.58.82,0,0,.09.78.62.87l1.64.26c.07.01.13.06.15.13.5,1.55,1.58,2.62,2.56,2.61.16,0,.31.09.38.23l1.3,2.76c.12.28.45.41.73.28.25-.12.37-.41.28-.67ZM13.99,29.03c-.54.13-1.16-.51-1.39-1.44-.23-.93.01-1.79.55-1.93.54-.13,1.16.51,1.39,1.44.23.93-.01,1.79-.55,1.93Z"/>
        </g>
      </g>
      <g class="cls-3">
        <path class="cls-2" d="M401,48H0V0h401v48ZM1,47h399V1H1v46Z"/>
      </g>
    </g>
  </g>
</svg>