<?xml version="1.0" encoding="UTF-8"?>
<svg id="Layer_2" data-name="Layer 2" xmlns="http://www.w3.org/2000/svg" viewBox="0 0 400 383">
  <defs>
    <style>
      .cls-1 {
        fill: #f15949;
      }

      .cls-1, .cls-2 {
        stroke-width: 0px;
      }

      .cls-2 {
        fill: #fff;
      }

      .cls-3 {
        opacity: 0;
      }
    </style>
  </defs>
  <g id="Layer_3" data-name="Layer 3">
    <g>
      <g>
        <path class="cls-1" d="M247.44,372.22l117.04-96.35c5.4-4.45,8.87-10.81,9.68-17.76l20.61-176.62c1-8.55-7.82-14.84-15.58-11.11l-135.98,65.26c-6.92,3.32-11.32,10.32-11.32,17.99v211.24c0,8.04,9.35,12.45,15.56,7.34Z"/>
        <path class="cls-1" d="M233.48,111.7l126.77-60.84c5.36-2.57,4.39-10.48-1.43-11.68L197.74,5.93c-7.22-1.49-14.69-1.16-21.74.96L31.26,50.3c-3.31.99-3.39,5.66-.11,6.76l168.65,56.72c11.07,3.72,23.15,2.98,33.68-2.08Z"/>
        <path class="cls-1" d="M175.92,132.96L19.17,80.25c-7.77-2.61-15.54,3.95-14.27,12.05l28.63,182.51c1.1,7.03,5.26,13.21,11.36,16.88l140.76,84.68c6.34,3.81,14.42-.75,14.42-8.15v-201.65c0-15.22-9.72-28.75-24.15-33.6ZM127.08,299.95c-26.04,6.56-56.45-25.01-67.91-70.52-11.46-45.51.35-87.72,26.4-94.28,26.04-6.56,56.45,25.01,67.91,70.52,11.46,45.51-.35,87.72-26.4,94.28Z"/>
        <path class="cls-1" d="M132.24,268.91l-10.76-29.07c-.27-.72-.29-1.52-.03-2.25,2.2-6.15,2.41-14.55.2-23.33-1.42-5.65-3.71-10.68-6.49-14.7-.25-.37-.35-.82-.25-1.26l5.17-22.08c1.25-6.53,1.07-11.66-4.14-11.53-1.89.04-3.34,1.79-3.9,3.6l-6.66,21.13c-.19.6-.83.93-1.43.73-2.14-.72-4.3-.86-6.38-.34-6.26,1.58-10.25,8.77-10.99,18.12-.06.7-.67,1.23-1.37,1.2l-11.49-.46c-3.29-.14-5.1,3.49-4.77,6.76,0,0,.75,6.41,5.12,7.19l13.54,2.18c.59.09,1.06.52,1.25,1.08,4.13,12.81,13.05,21.61,21.15,21.51,1.35-.02,2.59.7,3.17,1.92l10.77,22.76c.97,2.35,3.7,3.41,6,2.34,2.07-.97,3.07-3.35,2.31-5.5ZM108.41,232.9c-4.42,1.11-9.56-4.2-11.49-11.87-1.93-7.67.08-14.79,4.5-15.9,4.42-1.11,9.56,4.2,11.49,11.87,1.93,7.67-.08,14.79-4.5,15.9Z"/>
      </g>
      <g class="cls-3">
        <path class="cls-2" d="M400,383H0V0h400v383ZM1,382h398V1H1v381Z"/>
      </g>
    </g>
  </g>
</svg>